<?xml version="1.0" standalone="no"?>
<!DOCTYPE svg PUBLIC "-//W3C//DTD SVG 20010904//EN"
 "http://www.w3.org/TR/2001/REC-SVG-20010904/DTD/svg10.dtd">
<svg version="1.0" xmlns="http://www.w3.org/2000/svg"
 width="512.000000pt" height="512.000000pt" viewBox="0 0 512.000000 512.000000"
 preserveAspectRatio="xMidYMid meet">
<metadata>
Created by potrace 1.11, written by Peter Selinger 2001-2013
</metadata>
<g transform="translate(0.000000,512.000000) scale(0.100000,-0.100000)"
fill="#000000" stroke="none">
<path d="M3625 4823 c-81 -7 -212 -35 -305 -65 -302 -97 -544 -290 -701 -559
l-45 -77 -34 67 c-100 192 -289 375 -499 481 -92 46 -250 95 -370 115 -149 25
-414 16 -561 -18 -514 -122 -870 -442 -1030 -926 -142 -429 -94 -904 140
-1379 311 -633 774 -1180 1395 -1649 205 -154 519 -348 741 -455 l108 -53 103
0 102 0 134 68 c533 271 1135 759 1532 1242 323 392 592 869 700 1240 181 620
59 1166 -353 1589 -164 167 -351 278 -570 336 -149 40 -337 57 -487 43z
m-1922 -999 c92 -20 217 -80 286 -137 201 -168 293 -439 231 -682 -22 -86 -64
-185 -78 -185 -5 0 -29 11 -53 24 -24 13 -66 32 -94 41 -27 10 -54 21 -58 25
-4 4 3 29 17 56 84 168 51 369 -84 504 -174 174 -446 174 -620 0 -135 -135
-168 -336 -84 -504 14 -27 21 -52 17 -56 -4 -4 -30 -15 -58 -25 -27 -9 -70
-28 -94 -41 -24 -13 -48 -24 -53 -24 -15 0 -64 118 -82 197 -67 297 85 612
361 750 139 69 299 90 446 57z m2000 0 c92 -20 217 -80 286 -137 201 -168 293
-439 231 -682 -22 -86 -64 -185 -78 -185 -5 0 -29 11 -53 24 -24 13 -66 32
-94 41 -27 10 -54 21 -58 25 -4 4 3 29 17 56 145 288 -70 634 -394 634 -118 0
-225 -45 -310 -130 -135 -135 -168 -336 -84 -504 14 -27 21 -52 17 -56 -4 -4
-30 -15 -58 -25 -27 -9 -70 -28 -94 -41 -24 -13 -48 -24 -53 -24 -15 0 -64
118 -82 197 -67 297 85 612 361 750 139 69 299 90 446 57z m-183 -2208 c0
-287 0 -294 -22 -326 -52 -76 -123 -97 -198 -58 -52 27 -90 89 -90 149 0 74
-79 149 -157 149 -61 0 -110 -25 -141 -73 -26 -39 -27 -47 -32 -213 -5 -187
-9 -200 -71 -247 -68 -50 -175 -19 -216 63 -22 42 -23 55 -23 290 l0 245 168
0 c137 1 182 5 254 23 187 46 346 127 463 236 33 30 61 55 63 56 1 0 2 -132 2
-294z"/>
</g>
</svg>
